<?xml version="1.0" encoding="UTF-8"?>
<svg id="Layer_1" data-name="Layer 1" xmlns="http://www.w3.org/2000/svg" viewBox="0 0 295.51 107.18">
  <defs>
    <style>
      .cls-1 {
        fill: #252525;
      }

      .cls-1, .cls-2, .cls-3 {
        stroke-width: 0px;
      }

      .cls-4 {
        fill: none;
        stroke: #fff;
        stroke-miterlimit: 10;
      }

      .cls-2 {
        fill: #88bf3d;
      }

      .cls-3 {
        fill: #fff;
      }
    </style>
  </defs>
  <rect class="cls-1" x="0" y="3.35" width="295.69" height="101.1" rx="13.85" ry="13.85"/>
  <g>
    <path class="cls-4" d="M109.88,57.11h12.63c.69,0,1.69.15,2.99.46l-.07-4.56c0-.89-.31-1.65-.94-2.28-.63-.63-1.39-.94-2.28-.94h-12.25c-.87,0-1.63-.32-2.27-.96-.64-.64-.96-1.39-.96-2.26s.31-1.65.94-2.28c.63-.63,1.39-.94,2.28-.94h12.24c2.66,0,4.93.93,6.81,2.8,1.88,1.87,2.86,4.15,2.94,6.86l.8,24.1c0,.89-.32,1.65-.96,2.28-.64.63-1.39.94-2.26.94-.92,0-1.7-.31-2.34-.94-.64-.63-.96-1.39-.96-2.28l-5.45,3.22h-10.9c-2.71,0-5.02-.94-6.91-2.84-1.89-1.89-2.84-4.19-2.84-6.9v-3.76c0-2.68.95-4.98,2.86-6.88,1.91-1.9,4.2-2.85,6.89-2.85ZM125.98,69.64l-.19-2.72c-.03-.92-.34-1.69-.96-2.3-.61-.61-1.37-.92-2.26-.92h-12.7c-.9,0-1.66.31-2.28.94-.63.63-.94,1.39-.94,2.28v3.6c0,.87.32,1.62.96,2.26.64.64,1.39.96,2.26.96h9.09l7.02-4.1Z"/>
    <path class="cls-4" d="M150.75,29.4h29.35v4.14l-23.66,40.35h20.44c.9,0,1.66.31,2.28.94.63.63.94,1.39.94,2.28s-.32,1.62-.96,2.26c-.64.64-1.39.96-2.26.96h-29.28v-4.25l23.59-40.16h-20.45c-.87,0-1.61-.33-2.22-.98-.61-.65-.92-1.42-.92-2.32s.31-1.62.92-2.26c.61-.64,1.35-.96,2.22-.96Z"/>
    <path class="cls-4" d="M221.07,80.25h-19.62c-.9,0-1.65-.31-2.28-.94-.63-.63-.94-1.39-.94-2.28s.31-1.62.94-2.26c.63-.64,1.39-.96,2.28-.96h6.59v-24.03h-6.51c-.89,0-1.65-.32-2.28-.96-.63-.64-.94-1.39-.94-2.26s.31-1.67.94-2.32c.63-.65,1.39-.98,2.28-.98h9.81c.89,0,1.65.33,2.28.98.63.65.94,1.42.94,2.32v27.25h6.44c.89,0,1.67.31,2.32.94.65.63.98,1.39.98,2.28s-.32,1.65-.96,2.28c-.64.63-1.39.94-2.26.94ZM207.97,26.56h3.37c.89,0,1.65.31,2.28.94.63.63.94,1.39.94,2.28v2.76c0,.89-.31,1.67-.94,2.32-.63.65-1.39.98-2.28.98h-3.45c-.92,0-1.69-.33-2.32-1-.63-.66-.93-1.4-.9-2.22l.08-2.84c0-.89.31-1.65.94-2.28.63-.63,1.39-.94,2.28-.94Z"/>
    <path class="cls-4" d="M274.99,46.57v2.61c0,1.02-.37,1.89-1.11,2.61l-22.86,22.11h20.67c.89,0,1.65.31,2.28.94.63.63.94,1.39.94,2.28s-.31,1.65-.94,2.28c-.63.63-1.39.94-2.28.94h-25.91c-.92,0-1.7-.31-2.34-.94-.64-.63-.96-1.39-.96-2.28v-2.76c0-.92.57-1.94,1.72-3.07l22.39-21.5h-19.32c-.89,0-1.65-.32-2.28-.96-.63-.64-.94-1.42-.94-2.34,0-.84.32-1.59.96-2.24.64-.65,1.39-.98,2.26-.98h24.49c.89,0,1.65.33,2.28.98.63.65.94,1.42.94,2.32Z"/>
  </g>
  <g>
    <path class="cls-3" d="M103.27,60.55h13.21c.72,0,1.77.16,3.13.48l-.08-4.77c0-.93-.33-1.73-.98-2.38-.66-.65-1.45-.98-2.39-.98h-12.81c-.91,0-1.7-.33-2.37-1-.67-.67-1-1.46-1-2.37s.33-1.73.98-2.38c.66-.65,1.45-.98,2.39-.98h12.81c2.78,0,5.16.98,7.13,2.93,1.97,1.95,2.99,4.34,3.07,7.18l.84,25.21c0,.94-.33,1.73-1,2.39-.67.66-1.46.98-2.37.98-.96,0-1.78-.33-2.44-.98-.67-.65-1-1.45-1-2.39l-5.7,3.37h-11.4c-2.84,0-5.25-.99-7.23-2.97-1.98-1.98-2.97-4.38-2.97-7.22v-3.93c0-2.81,1-5.2,2.99-7.19,1.99-1.99,4.4-2.99,7.21-2.99ZM120.11,73.66l-.2-2.85c-.03-.96-.36-1.76-1-2.4-.64-.64-1.43-.96-2.37-.96h-13.28c-.94,0-1.73.33-2.39.98-.65.66-.98,1.45-.98,2.38v3.77c0,.91.33,1.7,1,2.37.67.67,1.46,1,2.37,1h9.51l7.34-4.29Z"/>
    <path class="cls-3" d="M146.03,31.57h30.7v4.33l-24.74,42.21h21.38c.94,0,1.73.33,2.39.98.66.66.98,1.45.98,2.39s-.33,1.7-1,2.37c-.67.67-1.46,1-2.37,1h-30.62v-4.45l24.67-42.01h-21.39c-.91,0-1.68-.34-2.32-1.02-.64-.68-.96-1.49-.96-2.42s.32-1.7.96-2.37c.64-.67,1.42-1,2.33-1Z"/>
    <path class="cls-2" d="M219.58,84.77h-20.52c-.94,0-1.73-.33-2.39-.98-.66-.65-.98-1.45-.98-2.39s.33-1.7.98-2.37c.65-.67,1.45-1,2.39-1h6.89v-25.13h-6.81c-.94,0-1.73-.33-2.38-1-.66-.67-.98-1.46-.98-2.37s.33-1.74.98-2.42c.65-.68,1.45-1.02,2.38-1.02h10.26c.94,0,1.73.34,2.39,1.02.65.68.98,1.49.98,2.42v28.5h6.73c.94,0,1.74.33,2.43.98.68.66,1.02,1.45,1.02,2.39s-.33,1.73-1,2.39c-.67.66-1.46.98-2.37.98ZM205.87,28.61h3.53c.94,0,1.73.33,2.39.98.65.66.98,1.45.98,2.39v2.89c0,.94-.33,1.74-.98,2.43-.65.68-1.45,1.02-2.39,1.02h-3.61c-.96,0-1.77-.35-2.42-1.04-.66-.69-.97-1.47-.94-2.33l.08-2.97c0-.94.33-1.73.98-2.39.65-.65,1.45-.98,2.38-.98Z"/>
    <path class="cls-3" d="M275.98,49.53v2.73c0,1.07-.39,1.98-1.16,2.73l-23.91,23.13h21.62c.94,0,1.73.33,2.39.98.65.66.98,1.45.98,2.39s-.33,1.73-.98,2.39c-.65.66-1.45.98-2.39.98h-27.1c-.96,0-1.78-.33-2.44-.98-.67-.65-1-1.45-1-2.39v-2.89c0-.96.6-2.03,1.8-3.21l23.42-22.49h-20.21c-.94,0-1.73-.33-2.39-1-.65-.67-.98-1.48-.98-2.45,0-.88.33-1.66,1-2.34.67-.68,1.46-1.02,2.36-1.02h25.61c.94,0,1.73.34,2.39,1.02.65.68.98,1.49.98,2.42Z"/>
  </g>
  <polygon class="cls-3" points="18.81 61 3.87 34.43 44.53 34.13 37.57 41.59 16.88 41.74 24.23 55.32 18.81 61"/>
  <polygon class="cls-2" points="73.55 64.31 86.59 87.59 51 87.79 57.1 81.27 75.21 81.17 68.79 69.27 73.55 64.31"/>
  <polygon class="cls-3" points="89.4 20.34 11.33 98.41 8.45 95.53 89.4 20.34"/>
  <g>
    <path class="cls-3" d="M13.75,72.65l3.27,3.27-4.35,8.42h0,0s-1.84,1.84-1.84,1.84l-5.31-5.31,8.22-8.22ZM14.59,77.18l-1.67-1.67-4.54,4.54,3.12,3.12,3.09-5.99Z"/>
    <path class="cls-3" d="M25.75,66.16l-2.29,5.37,3.83-3.83,1.02,1.02-7.34,7.34-4.26-4.26,7.34-7.34,1.7,1.71h0s0,0,0,0ZM23.25,67.34l-3.65,3.65,1.69,1.69,2.12-5.19-.16-.16Z"/>
    <path class="cls-3" d="M34.88,53.62l.92,7.61-2.87,2.87-7.32-1.21,1.94-1.94,6.17,1.02-.77-6.41,1.94-1.94Z"/>
    <path class="cls-3" d="M45.55,46.36l-2.29,5.37,3.83-3.83,1.02,1.02-7.33,7.34-4.26-4.26,7.33-7.34,1.7,1.71h0s0,0,0,0ZM43.05,47.54l-3.65,3.65,1.69,1.69,2.12-5.19-.16-.16Z"/>
    <path class="cls-3" d="M50.04,46.98l-5.66-5.66,1.84-1.84,5.66,5.66-1.84,1.84Z"/>
    <path class="cls-3" d="M57.85,31.99l3.59,3.59-7.57,7.57-4.26-4.26,5.46-5.46,2.79-1.44ZM58.55,36.37l-1.95-1.95-1.02.52-3.13,3.13,2.2,2.2,3.89-3.9Z"/>
    <path class="cls-3" d="M68.15,23.67l-3.28,7.71,1.25,1.25-1.84,1.84-5.13-5.13,7.34-7.34,1.66,1.67ZM65.83,25.02l-.16-.16-3.65,3.65,1.69,1.69,2.12-5.18Z"/>
    <path class="cls-3" d="M77.3,14.6l-2.29,5.37,3.83-3.83,1.02,1.02-7.34,7.34-4.26-4.26,7.34-7.34,1.7,1.71h0s0,0,0,0ZM74.81,15.79l-3.65,3.65,1.69,1.69,2.12-5.19-.16-.16Z"/>
    <path class="cls-3" d="M84.16,5.68l1.17,1.17-3.44,1.78-1.51,1.51,3.25,3.25-1.84,1.84-4.26-4.26,3.85-3.85,2.78-1.44Z"/>
  </g>
  <g>
    <path class="cls-2" d="M100.49,30.11l-4.4-4.4,5.85-11.32h0s2.48-2.48,2.48-2.48l7.13,7.14-11.06,11.06ZM99.35,24.02l2.25,2.25,6.11-6.11-4.2-4.2-4.16,8.06Z"/>
    <path class="cls-2" d="M84.34,38.86l3.08-7.22-5.16,5.16-1.36-1.37,9.87-9.87,5.73,5.73-9.87,9.87-2.28-2.29h0s0,0,0,0ZM87.7,37.26l4.92-4.92-2.28-2.28-2.86,6.98.22.22Z"/>
    <path class="cls-2" d="M80.28,44.77l-.36-.36-7.54,3.22-1.84-1.85,7.85-7.85,1.42,1.42-4.69,4.69,6.51-2.87h0s2.49,2.49,2.49,2.49l-7.85,7.85-1.37-1.36,5.38-5.38Z"/>
    <path class="cls-2" d="M68.05,48.28l5.38,5.38-2.47,2.47-5.38-5.38,2.47-2.47ZM74.29,54.44l1.4,1.4-2.55,2.55-1.4-1.4,2.55-2.55Z"/>
    <path class="cls-2" d="M59.03,68.76l-6.9-6.91,9.87-9.87,1.36,1.37-7.4,7.4.29.29,10.36-4.42h0s0,0,0,0l2.28,2.27-9.87,9.87ZM60.1,64.88l4.92-4.92-.22-.22-6.98,2.86,2.28,2.28Z"/>
    <path class="cls-2" d="M40.99,75.33l2.47-2.47,4.03,4.03,1.38-.71,3.6-3.6-4.36-4.37,2.47-2.47,5.73,5.73-6.73,6.74-3.76,1.94-4.83-4.81Z"/>
    <path class="cls-2" d="M31.9,91.29l3.08-7.22-5.16,5.16-1.37-1.37,9.87-9.87,5.73,5.73-9.87,9.87-2.28-2.29h-.01s0,0,0,0ZM35.26,89.7l4.92-4.92-2.28-2.28-2.86,6.98.22.22Z"/>
    <path class="cls-2" d="M22.66,103.3l-1.57-1.58,4.63-2.39,2.03-2.03-4.36-4.37,2.47-2.47,5.73,5.73-5.19,5.18-3.74,1.93Z"/>
  </g>
</svg>