<?xml version="1.0" encoding="UTF-8"?>
<svg id="Layer_1" data-name="Layer 1" xmlns="http://www.w3.org/2000/svg" viewBox="0 0 295.51 107.18">
  <defs>
    <style>
      .cls-1 {
        fill: #252525;
      }

      .cls-1, .cls-2, .cls-3 {
        stroke-width: 0px;
      }

      .cls-4 {
        letter-spacing: -.02em;
      }

      .cls-4, .cls-5, .cls-6, .cls-3 {
        fill: #fff;
      }

      .cls-7 {
        font-family: TeroxiaDemoPersonalUse, 'Teroxia Demo';
        font-size: 45.3px;
      }

      .cls-2, .cls-8 {
        fill: #88bf3d;
      }

      .cls-6 {
        letter-spacing: .02em;
      }

      .cls-8 {
        letter-spacing: -.02em;
      }
    </style>
  </defs>
  <rect class="cls-1" x="-.09" y="3.04" width="295.69" height="101.1" rx="13.85" ry="13.85"/>
  <text class="cls-7" transform="translate(117.67 73.29) scale(1.81 1)"><tspan class="cls-6" x="0" y="0">A</tspan><tspan class="cls-4" x="33.16" y="0">z</tspan><tspan class="cls-8" x="57.15" y="0">i</tspan><tspan class="cls-5" x="68.87" y="0">z</tspan></text>
  <polygon class="cls-3" points="85.65 95.12 79.01 87.33 70.38 94.69 63.2 86.27 71.9 78.85 78.54 86.64 87.17 79.28 93.64 86.87 101.14 80.46 93.96 72.04 101.19 65.89 94.03 57.5 102.73 50.08 109.91 58.5 102.69 64.66 109.84 73.05 102.05 79.69 109.23 88.11 100.53 95.53 94.06 87.95 85.65 95.12"/>
  <polygon class="cls-3" points="44.05 62.63 55.51 54.19 43.14 32.47 78.88 32.02 110.55 20.26 18.87 19.96 44.05 62.63"/>
  <polygon class="cls-2" points="94.27 34.89 128.05 16.49 50.68 92.34 20.98 92.19 94.27 34.89"/>
</svg>