<?xml version="1.0" encoding="UTF-8"?>
<svg id="Layer_1" data-name="Layer 1" xmlns="http://www.w3.org/2000/svg" viewBox="0 0 49.5 31.39">
  <defs>
    <style>
      .cls-1 {
        fill: none;
        stroke: #cd7128;
        stroke-miterlimit: 10;
        stroke-width: .25px;
      }

      .cls-2 {
        fill: #242424;
      }

      .cls-2, .cls-3 {
        stroke-width: 0px;
      }

      .cls-3 {
        fill: #cd7128;
      }
    </style>
  </defs>
  <g>
    <path class="cls-1" d="M5.54,23.9s.01.02.02.04c0,.02.01.04.01.04v3.45s0,.02-.01.04c0,.02-.02.04-.02.04l-.69.69s-.02.01-.04.02c-.02,0-.03.01-.04.01H1.84s-.06-.01-.08-.03-.03-.05-.03-.08v-.96s.01-.06.03-.08.05-.03.08-.03h.23v-2.67h-.23s-.06-.01-.08-.03c-.02-.02-.03-.05-.03-.08v-.96s.01-.06.03-.08.05-.03.08-.03h2.92s.02,0,.04.01c.02,0,.04.02.04.02l.69.69ZM4.76,23.29H1.84v.96h.34v2.9h-.34v.96h2.92l.69-.69v-3.45l-.69-.69ZM3.29,27.16v-2.9h1.06v2.9h-1.06ZM4.23,27.04v-2.67h-.83v2.67h.83Z"/>
    <path class="cls-1" d="M5.78,27.16s.01-.06.03-.08.05-.03.08-.03h.23v-2.67h-.23s-.06-.01-.08-.03c-.02-.02-.03-.05-.03-.08v-.96s.01-.06.03-.08.05-.03.08-.03h3.41s.06.01.08.03c.02.02.03.05.03.08v1.38s-.01.06-.03.08c-.02.02-.05.03-.08.03h-.97s-.06-.01-.08-.03-.03-.05-.03-.08v-.3h-.75v.73h1.31s.06.01.08.03c.02.02.03.05.03.08v.96s-.01.06-.03.08-.05.03-.08.03h-1.31v.74h.75v-.3s.01-.07.03-.09.05-.03.08-.03h.97s.06.01.08.03c.02.02.03.05.03.09v1.38s-.01.06-.03.08c-.02.02-.05.03-.08.03h-3.41s-.06-.01-.08-.03-.03-.05-.03-.08v-.96ZM5.9,28.13h3.41v-1.38h-.97v.41h-.99v-.97h1.43v-.96h-1.43v-.97h.99v.41h.97v-1.38h-3.41v.96h.34v2.9h-.34v.96Z"/>
    <path class="cls-1" d="M9.65,25.58s-.01-.02-.02-.04-.01-.04-.01-.04v-1.52s0-.02.01-.04c0-.02.02-.03.02-.04l.69-.69s.02-.01.04-.02c.02,0,.04-.01.04-.01h2.07s.02,0,.04.01c.02,0,.04.02.04.02l.69.69s.01.02.02.04c0,.02.01.04.01.04v.69s-.01.06-.03.08-.05.03-.08.03h-1.11s-.06-.01-.08-.03-.03-.05-.03-.08v-.3h-1.01v.73h1.54s.02,0,.04.01c.02,0,.04.02.04.02l.69.69s.01.02.02.04c0,.02.01.03.01.04v1.52s0,.02-.01.04-.02.04-.02.04l-.69.69s-.02.01-.04.02c-.02,0-.03.01-.04.01h-2.07s-.02,0-.04-.01c-.02,0-.03-.02-.04-.02l-.69-.69s-.01-.02-.02-.04-.01-.03-.01-.04v-.69s.01-.07.03-.09.05-.03.08-.03h1.1s.06.01.08.03.03.05.03.09v.3h1.01v-.74h-1.54s-.02,0-.04-.01c-.02,0-.03-.02-.04-.02l-.69-.69ZM10.42,26.19h1.65v.97h-1.24v-.41h-1.1v.69l.69.69h2.07l.69-.69v-1.52l-.69-.69h-1.66v-.97h1.24v.41h1.11v-.69l-.69-.69h-2.07l-.69.69v1.52l.69.69Z"/>
    <path class="cls-1" d="M13.48,27.16s.01-.06.03-.08.05-.03.08-.03h.23v-2.67h-.23s-.06-.01-.08-.03c-.02-.02-.03-.05-.03-.08v-.96s.01-.06.03-.08.05-.03.08-.03h1.79s.06.01.08.03.03.05.03.08v.96s-.01.06-.03.08c-.02.02-.05.03-.08.03h-.23v2.67h.23s.06.01.08.03.03.05.03.08v.96s-.01.06-.03.08-.05.03-.08.03h-1.79s-.06-.01-.08-.03-.03-.05-.03-.08v-.96ZM13.59,28.13h1.79v-.96h-.34v-2.9h.34v-.96h-1.79v.96h.34v2.9h-.34v.96Z"/>
    <path class="cls-1" d="M15.72,23.98s0-.02.01-.04c0-.02.02-.03.02-.04l.69-.69s.02-.01.04-.02c.02,0,.04-.01.04-.01h2.08s.02,0,.04.01c.02,0,.04.02.04.02l.69.69s.01.02.02.04c0,.02.01.04.01.04v.69s-.01.06-.03.08-.05.03-.08.03h-1.11s-.06-.01-.08-.03-.03-.05-.03-.08v-.3h-1.01v2.67h1.01v-.46h-.67s-.06-.01-.08-.03c-.02-.02-.03-.05-.03-.09v-.97s.01-.06.03-.08c.02-.02.05-.03.08-.03h1.9s.06.01.08.03.03.05.03.08v1.94s0,.02-.01.04-.02.04-.02.04l-.69.69s-.02.01-.04.02c-.02,0-.03.01-.04.01h-2.08s-.02,0-.04-.01c-.02,0-.03-.02-.04-.02l-.69-.69s-.01-.02-.02-.04c0-.02-.01-.03-.01-.04v-3.45ZM15.84,27.44l.69.69h2.08l.69-.69v-1.94h-1.9v.97h.79v.7h-1.24v-2.9h1.24v.41h1.11v-.69l-.69-.69h-2.08l-.69.69v3.45Z"/>
    <path class="cls-1" d="M19.71,28.24s-.06-.01-.08-.03-.03-.05-.03-.08v-.96s.01-.06.03-.08.05-.03.08-.03h.23v-2.67h-.23s-.06-.01-.08-.03c-.02-.02-.03-.05-.03-.08v-.96s.01-.06.03-.08.05-.03.08-.03h1.54s.03,0,.06.02c.03.02.04.03.05.04l1.13,2.32v-1.18h-.23s-.07-.01-.09-.03c-.02-.02-.03-.05-.03-.08v-.96s.01-.06.03-.08c.02-.02.05-.03.09-.03h1.79s.06.01.08.03c.02.02.03.05.03.08v.96s-.01.06-.03.08-.05.03-.08.03h-.23v2.67h.23s.06.01.08.03c.02.02.03.05.03.08v.96s-.01.06-.03.08c-.02.02-.05.03-.08.03h-1.52s-.04,0-.06-.02c-.02-.02-.04-.03-.05-.04l-1.15-2.35v1.22h.23s.06.01.08.03.03.05.03.08v.96s-.01.06-.03.08-.05.03-.08.03h-1.79ZM21.51,28.13v-.96h-.34v-1.85l1.38,2.81h1.52v-.96h-.34v-2.9h.34v-.96h-1.79v.96h.34v1.8l-1.36-2.76h-1.54v.96h.34v2.9h-.34v.96h1.79Z"/>
    <path class="cls-1" d="M29.8,28.13s-.01.06-.03.08-.05.03-.08.03h-2.76s-.02,0-.04-.01c-.02,0-.03-.02-.04-.02l-.69-.69s-.01-.02-.02-.04-.01-.03-.01-.04v-1.39s0-.03.02-.05.03-.04.03-.05l.39-.25-.39-.24s-.02-.03-.03-.05-.02-.04-.02-.06v-1.38s0-.02.01-.04c0-.02.02-.03.02-.04l.69-.69s.02-.01.04-.02c.02,0,.04-.01.04-.01h2.08s.02,0,.04.01c.02,0,.04.02.04.02l.69.69s.01.02.02.04c0,.02.01.04.01.04v.69s-.01.06-.03.08-.05.03-.08.03h-1.11s-.06-.01-.08-.03-.03-.05-.03-.08v-.3h-1.01v.73h2.23s.06.01.08.03.03.05.03.08v2.9ZM29.68,25.22h-2.35v-.97h1.24v.41h1.11v-.69l-.69-.69h-2.08l-.69.69v1.38l.55.34-.55.34v1.39l.69.69h2.76v-2.9ZM27.33,26.19h1.24v.97h-1.24v-.97ZM27.45,27.04h1.01v-.74h-1.01v.74Z"/>
    <path class="cls-1" d="M35.51,27.44s0,.02-.01.04-.02.04-.02.04l-.69.69s-.02.01-.04.02c-.02,0-.03.01-.04.01h-2.08s-.02,0-.04-.01c-.02,0-.03-.02-.04-.02l-.69-.69s-.01-.02-.02-.04c0-.02-.01-.03-.01-.04v-3.45s0-.02.01-.04c0-.02.02-.03.02-.04l.69-.69s.02-.01.04-.02c.02,0,.04-.01.04-.01h2.08s.02,0,.04.01c.02,0,.04.02.04.02l.69.69s.01.02.02.04c0,.02.01.04.01.04v.69s-.01.06-.03.08-.05.03-.08.03h-1.11s-.06-.01-.08-.03-.03-.05-.03-.08v-.3h-1.01v2.67h1.01v-.3s.01-.07.03-.09.05-.03.08-.03h1.11s.06.01.08.03.03.05.03.09v.69ZM35.4,26.75h-1.11v.41h-1.24v-2.9h1.24v.41h1.11v-.69l-.69-.69h-2.08l-.69.69v3.45l.69.69h2.08l.69-.69v-.69Z"/>
    <path class="cls-1" d="M35.72,27.52s-.01-.02-.02-.04c0-.02-.01-.03-.01-.04v-3.45s0-.02.01-.04c0-.02.02-.03.02-.04l.69-.69s.02-.01.04-.02c.02,0,.04-.01.04-.01h2.08s.02,0,.04.01c.02,0,.04.02.04.02l.69.69s.01.02.02.04c0,.02.01.04.01.04v3.45s0,.02-.01.04-.02.04-.02.04l-.69.69s-.02.01-.04.02c-.02,0-.03.01-.04.01h-2.08s-.02,0-.04-.01c-.02,0-.03-.02-.04-.02l-.69-.69ZM36.49,28.13h2.08l.69-.69v-3.45l-.69-.69h-2.08l-.69.69v3.45l.69.69ZM38.15,24.26v2.9h-1.24v-2.9h1.24ZM37.02,24.38v2.67h1.01v-2.67h-1.01Z"/>
    <path class="cls-1" d="M43.4,23.9s.01.02.02.04c0,.02.01.04.01.04v3.45s0,.02-.01.04c0,.02-.02.04-.02.04l-.69.69s-.02.01-.04.02c-.02,0-.03.01-.04.01h-2.92s-.06-.01-.08-.03-.03-.05-.03-.08v-.96s.01-.06.03-.08.05-.03.08-.03h.23v-2.67h-.23s-.06-.01-.08-.03c-.02-.02-.03-.05-.03-.08v-.96s.01-.06.03-.08.05-.03.08-.03h2.92s.02,0,.04.01c.02,0,.04.02.04.02l.69.69ZM42.63,23.29h-2.92v.96h.34v2.9h-.34v.96h2.92l.69-.69v-3.45l-.69-.69ZM41.15,27.16v-2.9h1.06v2.9h-1.06ZM42.1,27.04v-2.67h-.83v2.67h.83Z"/>
    <path class="cls-1" d="M43.65,27.16s.01-.06.03-.08.05-.03.08-.03h.23v-2.67h-.23s-.06-.01-.08-.03c-.02-.02-.03-.05-.03-.08v-.96s.01-.06.03-.08.05-.03.08-.03h3.41s.06.01.08.03c.02.02.03.05.03.08v1.38s-.01.06-.03.08c-.02.02-.05.03-.08.03h-.97s-.06-.01-.08-.03-.03-.05-.03-.08v-.3h-.75v.73h1.31s.06.01.08.03c.02.02.03.05.03.08v.96s-.01.06-.03.08-.05.03-.08.03h-1.31v.74h.75v-.3s.01-.07.03-.09.05-.03.08-.03h.97s.06.01.08.03c.02.02.03.05.03.09v1.38s-.01.06-.03.08c-.02.02-.05.03-.08.03h-3.41s-.06-.01-.08-.03-.03-.05-.03-.08v-.96ZM43.76,28.13h3.41v-1.38h-.97v.41h-.99v-.97h1.43v-.96h-1.43v-.97h.99v.41h.97v-1.38h-3.41v.96h.34v2.9h-.34v.96Z"/>
  </g>
  <g>
    <path class="cls-2" d="M5.9,19.96h9.61l-5.53-15.22-5.82,16h-.84L9.97,2.45l6.66,18.3H5.9v-.78Z"/>
    <path class="cls-3" d="M33.46,4.46h0s-4.3,15.25-4.3,15.25c-.13.46-.59.73-1.03.61h0s4.3-15.25,4.3-15.25c.13-.46.59-.73,1.03-.61Z"/>
    <polyline class="cls-3" points="36.57 18.93 44.76 17.07 44.94 17.83 35.42 20"/>
    <polyline class="cls-2" points="34.48 19.35 42.78 4.99 34.64 4.99 34.64 4.21 44.14 4.21 35.84 18.57"/>
    <polyline class="cls-2" points="27.14 5.26 18.84 19.62 27.25 19.62 27.25 20.4 17.48 20.4 25.78 6.04"/>
    <polyline class="cls-3" points="23.76 6.96 15.9 9.1 15.69 8.34 24.86 5.85"/>
  </g>
</svg>