<?xml version="1.0" encoding="UTF-8"?>
<svg id="Layer_1" data-name="Layer 1" xmlns="http://www.w3.org/2000/svg" viewBox="0 0 25.11 15.9">
  <defs>
    <style>
      .cls-1 {
        stroke: #cd7128;
        stroke-width: .25px;
      }

      .cls-1, .cls-2 {
        fill: none;
        stroke-miterlimit: 10;
      }

      .cls-3, .cls-4 {
        stroke-width: 0px;
      }

      .cls-3, .cls-5 {
        fill: #242424;
      }

      .cls-2 {
        stroke: #242424;
        stroke-width: .5px;
      }

      .cls-4 {
        fill: #cd7128;
      }

      .cls-5 {
        font-family: Montserrat-SemiBold, Montserrat;
        font-size: 4.3px;
        font-weight: 600;
        letter-spacing: 0em;
      }
    </style>
  </defs>
  <rect class="cls-2" x="2.57" y="3.27" width="19.78" height="9.65"/>
  <rect class="cls-1" x="21.11" y="12.06" width="2.32" height="2.54"/>
  <rect class="cls-4" x="1.87" y="12.06" width="1.82" height="1.99"/>
  <rect class="cls-4" x="21.21" y="2.4" width="1.82" height="1.99"/>
  <rect class="cls-1" x="1.62" y="1.72" width="2.32" height="2.54"/>
  <text class="cls-5" transform="translate(7.51 9.3)"><tspan x="0" y="0">AzIZ</tspan></text>
  <path class="cls-3" d="M7.99,9.74l-.31.43-2.58-1.82,1.85-2.63-.31-.22-.2.28-.28-.2-.18.26-.26-.18-2.07,2.94,2.94,2.07.18-.26.26.18.2-.28.28.2.21-.3c.14-.02.56-.1.71-.12h.04s-.49-.35-.49-.35ZM6.59,10.6l-2.84-2.01,2.01-2.84.21.15-1.85,2.63,2.63,1.85-.15.21ZM7.04,10.52l-.21-.15-2.63-1.85,1.85-2.63.15-.21.23.16-1.84,2.61,2.61,1.84-.16.23ZM7.51,10.44l-.23-.16-2.61-1.84,1.84-2.61.16-.23.21.15-1.85,2.63,2.62,1.85h0s0,0,0,0h0s-.15.22-.15.22Z"/>
  <path class="cls-3" d="M17.66,6.2l.4-.32,1.88,2.38-2.43,1.91.22.29.26-.2.2.26.24-.19.19.24,2.72-2.14-2.14-2.72-.24.19-.19-.24-.26.2-.2-.26-.28.22c-.14-.02-.55-.06-.69-.08h-.04s.36.45.36.45ZM19.19,5.8l2.07,2.63-2.63,2.07-.16-.2,2.43-1.91-1.91-2.43.2-.16ZM18.76,5.75l.16.2,1.91,2.43-2.43,1.91-.2.16-.17-.21,2.42-1.9-1.9-2.42.21-.17ZM18.3,5.69l.17.21,1.9,2.42-2.42,1.9-.21.17-.16-.2,2.43-1.91-1.91-2.43h0s0,0,0,0h0s.2-.16.2-.16Z"/>
</svg>