<?xml version="1.0" encoding="UTF-8"?>
<svg id="Layer_1" data-name="Layer 1" xmlns="http://www.w3.org/2000/svg" viewBox="0 0 25.11 15.9">
  <defs>
    <style>
      .cls-1 {
        stroke: #cd7128;
        stroke-width: .25px;
      }

      .cls-1, .cls-2 {
        fill: none;
        stroke-miterlimit: 10;
      }

      .cls-3, .cls-4 {
        stroke-width: 0px;
      }

      .cls-3, .cls-5 {
        fill: #242424;
      }

      .cls-2 {
        stroke: #242424;
        stroke-width: .5px;
      }

      .cls-4 {
        fill: #cd7128;
      }

      .cls-5 {
        font-family: Montserrat-SemiBold, Montserrat;
        font-size: 4.3px;
        font-weight: 600;
        letter-spacing: 0em;
      }
    </style>
  </defs>
  <rect class="cls-2" x="2.57" y="3.28" width="19.78" height="9.65" transform="translate(-.58 .97) rotate(-4.38)"/>
  <rect class="cls-1" x="20.97" y="1.55" width="1.87" height="2.05" transform="translate(-.13 1.68) rotate(-4.38)"/>
  <rect class="cls-4" x="21.79" y="11.24" width="1.82" height="1.99" transform="translate(-.87 1.77) rotate(-4.38)"/>
  <rect class="cls-1" x="1.26" y="2.48" width="2.32" height="2.54" transform="translate(-.28 .2) rotate(-4.38)"/>
  <text class="cls-5" transform="translate(7.61 9.68) rotate(-4.38)"><tspan x="0" y="0">AzIZ</tspan></text>
  <path class="cls-3" d="M8.13,10.08l-.27.46-2.71-1.62,1.65-2.76-.32-.19-.17.29-.29-.17-.16.27-.27-.16-1.84,3.09,3.09,1.84.16-.27.27.16.17-.29.29.17.19-.32c.14-.03.55-.14.7-.18h.04s-.52-.32-.52-.32ZM6.79,11.05l-2.99-1.78,1.78-2.99.23.13-1.65,2.76,2.76,1.65-.13.23ZM7.23,10.94l-.23-.13-2.76-1.65,1.65-2.76.13-.23.24.14-1.64,2.74,2.74,1.64-.14.24ZM7.7,10.82l-.24-.14-2.74-1.64,1.64-2.74.14-.24.23.13-1.65,2.76,2.76,1.65h0s0,0,0,0h0s-.13.23-.13.23Z"/>
  <path class="cls-3" d="M17.5,5.82l.38-.35,2.05,2.23-2.28,2.09.25.27.24-.22.22.24.23-.21.21.23,2.55-2.34-2.34-2.55-.23.21-.21-.23-.24.22-.22-.24-.26.24c-.14,0-.55-.02-.69-.03h-.04s.39.42.39.42ZM18.99,5.3l2.27,2.46-2.46,2.27-.17-.19,2.28-2.09-2.09-2.28.19-.17ZM18.56,5.28l.17.19,2.09,2.28-2.28,2.09-.19.17-.18-.2,2.26-2.08-2.08-2.26.2-.18ZM18.1,5.26l.18.2,2.08,2.26-2.26,2.08-.2.18-.17-.19,2.28-2.09-2.09-2.27h0s0,0,0,0h0s.19-.17.19-.17Z"/>
</svg>